<svg xmlns="http://www.w3.org/2000/svg" width="50" height="50" viewBox="0 0 50 50" style="fill: rgb(255, 255, 255);">
    <path d="M 19.0625 1 C 16.5015 1.152 14.6925 2.05775 13.6875 3.71875 L 7.09375 15.15625 L 11.5 17.6875 L 0.15625 19.09375 L 3.625 21.09375 L 0.59375 26.25 C -0.04325 27.353 -0.41175 29.82 0.78125 31.625 C 1.25225 32.339 2.776 35.06775 4.125 37.46875 C 5.289 39.54375 6.377 41.4945 6.875 42.3125 C 7.453 43.0995 8.02475 43.87275 8.09375 43.96875 C 8.09575 43.96975 6.81775 41.817 9.09375 37.875 L 15 27.65625 L 18.46875 29.65625 L 14.03125 19.15625 L 18.4375 21.6875 L 27.875 5.34375 C 29.785 1.77775 31.31425 1.1595 31.65625 1.0625 C 31.82625 1.0625 31.969 1.0635 32.125 1.0625 C 31.991234 1.0569264 31.854799 1.0273841 31.71875 1.03125 C 31.63675 1.03125 31.55075 1.02825 31.46875 1.03125 C 30.07375 1.05725 27.666 1.05125 24.75 1.03125 C 23.018 1.01925 21.1195 1.005 19.0625 1 z M 32.96875 1.15625 C 32.37175 1.44425 31.08 2.39275 29.5 5.34375 L 25.875 11.625 L 28 15.34375 L 24.53125 17.375 L 35.84375 18.75 L 31.4375 21.28125 L 37.15625 31.1875 L 44.59375 31.1875 C 47.72075 31.1875 49.2755 30.17825 49.9375 29.53125 C 50.1195 28.30425 49.932 27.16825 49.375 26.15625 L 42.78125 14.75 L 38.375 17.28125 L 42.84375 6.78125 L 39.375 8.78125 L 36.40625 3.59375 C 35.90125 2.71875 34.57675 1.53425 32.96875 1.15625 z M 32.15625 28.71875 L 25.28125 37.84375 L 25.28125 32.75 L 13.84375 32.75 L 10.125 39.1875 C 8.561 41.8965 8.67625 43.75925 8.90625 44.65625 C 9.87725 45.42825 10.93875 45.851 12.09375 45.875 L 25.28125 45.875 L 25.28125 40.75 L 32.15625 49.875 L 32.15625 45.875 L 38.125 45.90625 C 39.398 45.90625 41.7205 45.02975 42.6875 43.09375 C 43.0705 42.32875 44.68875 39.619 46.09375 37.25 C 47.30875 35.204 48.44725 33.2785 48.90625 32.4375 C 49.29925 31.5435 49.66975 30.6705 49.71875 30.5625 C 49.71875 30.5625 48.51975 32.75 43.96875 32.75 L 32.15625 32.75 L 32.15625 28.71875 z"/>
</svg>